#!OML:ASF H:\Martial Arts Walks\Project 1\Capture day 1\Session 1\male.ASF
:FULLY-SPECIFIED
:DEGREES
876
root -2.41411 13.6583 14.4464 -5.28991 54.1644 -6.42639
lowerback 15.3681 -0.794695 -6.81635
upperback -2.3036 -2.05685 2.97836
thorax -10.8686 -0.428988 7.68388
lowerneck 5.6876 -14.7643 -15.0181
upperneck 1.66007 -20.8571 14.1017
head 2.63787 -10.5857 5.89147
rclavicle -2.6575e-014 -2.23633e-014
rhumerus -2.43799 -19.0199 -64.3598
rradius 82.909
rwrist 21.4178
rhand -44.8919 -31.734
rfingers 7.12502
rthumb -17.6796 -60.9502
lclavicle -2.6575e-014 -2.23633e-014
lhumerus -54.0328 -40.5717 117.903
lradius 105.507
lwrist 79.8142
lhand 14.1493 43.6217
lfingers 7.12502
lthumb 39.0503 69.1273
rfemur -55.8232 -40.3553 16.5093
rtibia 67.9327
rfoot -4.29178 6.76008
rtoes 12.8499
lfemur -27.4493 29.2656 -3.15311
ltibia 81.8446
lfoot -36.0447 17.7587
ltoes -17.7955
877
root -2.41394 13.6597 14.4542 -5.22209 54.1971 -6.37835
lowerback 15.3676 -0.798344 -6.86538
upperback -2.29467 -2.07293 2.96215
thorax -10.8546 -0.435284 7.69734
lowerneck 5.70765 -14.7738 -15.0223
upperneck 1.65932 -20.8729 14.1115
head 2.63828 -10.5944 5.89491
rclavicle -7.99176e-015 3.70733e-014
rhumerus -2.45618 -19.0298 -64.3355
rradius 82.9287
rwrist 21.3536
rhand -44.8817 -31.7122
rfingers 7.12502
rthumb -17.6698 -60.9294
lclavicle -7.99176e-015 3.70733e-014
lhumerus -54.0683 -40.5909 117.92
lradius 105.506
lwrist 79.8391
lhand 14.132 43.5885
lfingers 7.12502
lthumb 39.034 69.0987
rfemur -55.8505 -40.3565 16.4935
rtibia 67.9768
rfoot -4.34179 6.73067
rtoes 12.846
lfemur -27.4404 29.3313 -3.13889
ltibia 81.797
lfoot -36.0326 17.663
ltoes -17.9079
878
root -2.41336 13.6607 14.4613 -5.15495 54.2246 -6.33269
lowerback 15.3626 -0.800472 -6.90627
upperback -2.28737 -2.08513 2.94578
thorax -10.8407 -0.440219 7.70481
lowerneck 5.72061 -14.7829 -15.0243
upperneck 1.67596 -20.8878 14.1058
head 2.6429 -10.6023 5.89246
rclavicle -5.58119e-014 -5.36719e-015
rhumerus -2.47821 -19.0404 -64.313
rradius 82.9463
rwrist 21.3192
rhand -44.8796 -31.7069
rfingers 7.12502
rthumb -17.6678 -60.9242
lclavicle -5.58119e-014 -5.36719e-015
lhumerus -54.1058 -40.6119 117.941
lradius 105.499
lwrist 79.8708
lhand 14.1113 43.5654
lfingers 7.12502
lthumb 39.0145 69.0813
rfemur -55.8846 -40.362 16.4842
rtibia 68.0189
rfoot -4.39002 6.70691
rtoes 12.8556
lfemur -27.4354 29.3868 -3.13131
ltibia 81.7547
lfoot -36.0219 17.5848
ltoes -18.0067
879
root -2.41238 13.6616 14.4676 -5.09062 54.2464 -6.29199
lowerback 15.353 -0.801326 -6.9384
upperback -2.28156 -2.09355 2.93015
thorax -10.8266 -0.443849 7.70696
lowerneck 5.72631 -14.7906 -15.0241
upperneck 1.70856 -20.9006 14.0868
head 2.65139 -10.6087 5.88496
rclavicle -2.73795e-014 2.06736e-014
rhumerus -2.50223 -19.0529 -64.2928
rradius 82.9596
rwrist 21.3145
rhand -44.8813 -31.7074
rfingers 7.12502
rthumb -17.6694 -60.9245
lclavicle -2.73795e-014 2.06736e-014
lhumerus -54.1426 -40.6333 117.966
lradius 105.485
lwrist 79.9054
lhand 14.0767 43.5564
lfingers 7.12502
lthumb 38.9819 69.0816
rfemur -55.9241 -40.37 16.4822
rtibia 68.0576
rfoot -4.43515 6.6872
rtoes 12.8806
lfemur -27.434 29.4314 -3.12874
ltibia 81.7173
lfoot -36.0129 17.5248
ltoes -18.091
880
root -2.41104 13.6623 14.4733 -5.03271 54.2623 -6.2599
lowerback 15.3398 -0.80114 -6.96107
upperback -2.27676 -2.09829 2.91651
thorax -10.8125 -0.446221 7.70485
lowerneck 5.72572 -14.7958 -15.0223
upperneck 1.75354 -20.9097 14.0586
head 2.66283 -10.613 5.87396
rclavicle 1.03085e-013 -1.92821e-014
rhumerus -2.52603 -19.0673 -64.2753
rradius 82.9669
rwrist 21.3324
rhand -44.8815 -31.6999
rfingers 7.12502
rthumb -17.6696 -60.917
lclavicle 1.03085e-013 -1.92821e-014
lhumerus -54.1768 -40.652 117.994
lradius 105.465
lwrist 79.9384
lhand 14.0259 43.564
lfingers 7.12502
lthumb 38.934 69.1029
rfemur -55.966 -40.3776 16.4879
rtibia 68.0914
rfoot -4.4757 6.66977
rtoes 12.9213
lfemur -27.4348 29.4657 -3.12788
ltibia 81.6839
lfoot -36.0052 17.4828
ltoes -18.1636
881
root -2.4094 13.6631 14.4783 -4.98385 54.2722 -6.23833
lowerback 15.3247 -0.799885 -6.97487
upperback -2.27248 -2.09943 2.90564
thorax -10.7986 -0.447295 7.69981
lowerneck 5.72092 -14.7978 -15.0188
upperneck 1.80598 -20.914 14.0254
head 2.67575 -10.6147 5.86119
rclavicle -1.03101e-013 -2.62396e-014
rhumerus -2.54815 -19.0835 -64.2601
rradius 82.9673
rwrist 21.3601
rhand -44.8786 -31.6713
rfingers 7.12502
rthumb -17.6669 -60.8887
lclavicle -1.03101e-013 -2.62396e-014
lhumerus -54.2081 -40.6641 118.026
lradius 105.441
lwrist 79.9668
lhand 13.9669 43.5889
lfingers 7.12502
lthumb 38.8783 69.1437
rfemur -56.0072 -40.3825 16.5007
rtibia 68.1192
rfoot -4.51075 6.65336
rtoes 12.9717
lfemur -27.4361 29.4908 -3.12599
ltibia 81.6538
lfoot -35.9991 17.4562
ltoes -18.2254
882
root -2.40756 13.6639 14.4828 -4.94652 54.2762 -6.22914
lowerback 15.309 -0.797709 -6.98053
upperback -2.26832 -2.09732 2.8983
thorax -10.7853 -0.447149 7.69325
lowerneck 5.71429 -14.7957 -15.0138
upperneck 1.86061 -20.9128 13.991
head 2.68853 -10.6135 5.84822
rclavicle -4.57205e-014 2.18663e-015
rhumerus -2.56737 -19.1006 -64.2466
rradius 82.9605
rwrist 21.3846
rhand -44.8724 -31.6175
rfingers 7.12502
rthumb -17.6609 -60.8354
lclavicle -4.57205e-014 2.18663e-015
lhumerus -54.2368 -40.6653 118.061
lradius 105.416
lwrist 79.9899
lhand 13.9142 43.6282
lfingers 7.12502
lthumb 38.8287 69.1971
rfemur -56.0449 -40.3831 16.5199
rtibia 68.1411
rfoot -4.54049 6.63711
rtoes 13.0243
lfemur -27.4365 29.5085 -3.12022
ltibia 81.6261
lfoot -35.9936 17.4435
ltoes -18.2813
883
root -2.40559 13.6648 14.4866 -4.91978 54.2752 -6.23071
lowerback 15.2937 -0.794529 -6.98036
upperback -2.26411 -2.09235 2.89447
thorax -10.7726 -0.445822 7.68663
lowerneck 5.70755 -14.79 -15.0072
upperneck 1.91358 -20.9064 13.9581
head 2.70009 -10.6098 5.83609
rclavicle -8.28621e-014 -1.61016e-014
rhumerus -2.58292 -19.1184 -64.2336
rradius 82.947
rwrist 21.3952
rhand -44.8658 -31.5427
rfingers 7.12502
rthumb -17.6545 -60.7612
lclavicle -8.28621e-014 -1.61016e-014
lhumerus -54.2637 -40.6531 118.096
lradius 105.391
lwrist 80.0092
lhand 13.8805 43.6786
lfingers 7.12502
lthumb 38.7968 69.2565
rfemur -56.0776 -40.3795 16.5435
rtibia 68.1578
rfoot -4.56576 6.62121
rtoes 13.0735
lfemur -27.4351 29.5201 -3.1105
ltibia 81.6003
lfoot -35.9897 17.4399
ltoes -18.3291
884
root -2.40353 13.6656 14.4901 -4.90112 54.2702 -6.24068
lowerback 15.2784 -0.790411 -6.97701
upperback -2.25998 -2.08512 2.89406
thorax -10.7605 -0.443445 7.68151
lowerneck 5.70144 -14.7814 -14.9992
upperneck 1.96227 -20.8957 13.9279
head 2.70985 -10.604 5.82523
rclavicle -3.29361e-014 -3.29983e-014
rhumerus -2.59422 -19.1366 -64.2199
rradius 82.9274
rwrist 21.3872
rhand -44.8613 -31.4589
rfingers 7.12502
rthumb -17.6502 -60.6778
lclavicle -3.29361e-014 -3.29983e-014
lhumerus -54.2886 -40.6267 118.13
lradius 105.37
lwrist 80.0262
lhand 13.8736 43.7328
lfingers 7.12502
lthumb 38.7903 69.3125
rfemur -56.1055 -40.3726 16.5701
rtibia 68.1709
rfoot -4.58815 6.60607
rtoes 13.1176
lfemur -27.4328 29.5266 -3.09799
ltibia 81.5756
lfoot -35.9872 17.4431
ltoes -18.3688
885
root -2.40144 13.6665 14.4932 -4.8852 54.2623 -6.25396
lowerback 15.2622 -0.785191 -6.97447
upperback -2.25624 -2.07621 2.8965
thorax -10.7484 -0.440079 7.67965
lowerneck 5.69539 -14.7713 -14.9901
upperneck 2.0064 -20.8828 13.9003
head 2.71808 -10.5971 5.81538
rclavicle -4.49129e-014 -2.08724e-014
rhumerus -2.60112 -19.1556 -64.2047
rradius 82.9027
rwrist 21.3635
rhand -44.8627 -31.3816
rfingers 7.12502
rthumb -17.6516 -60.6004
lclavicle -4.49129e-014 -2.08724e-014
lhumerus -54.311 -40.5874 118.161
lradius 105.353
lwrist 80.0415
lhand 13.8938 43.7833
lfingers 7.12502
lthumb 38.8094 69.3577
rfemur -56.1306 -40.3636 16.5975
rtibia 68.182
rfoot -4.60867 6.59255
rtoes 13.1617
lfemur -27.4307 29.5284 -3.08612
ltibia 81.5512
lfoot -35.9861 17.4509
ltoes -18.3994
886
root -2.39936 13.6675 14.496 -4.86632 54.2524 -6.26572
lowerback 15.2436 -0.778954 -6.97618
upperback -2.25331 -2.06638 2.90125
thorax -10.7358 -0.435915 7.68257
lowerneck 5.68864 -14.761 -14.9808
upperneck 2.04573 -20.8691 13.8753
head 2.72518 -10.5898 5.80644
rclavicle -5.16033e-014 2.92213e-014
rhumerus -2.60379 -19.1757 -64.1882
rradius 82.8747
rwrist 21.3333
rhand -44.8706 -31.3257
rfingers 7.12502
rthumb -17.6591 -60.5438
lclavicle -5.16033e-014 2.92213e-014
lhumerus -54.3295 -40.5374 118.188
lradius 105.342
lwrist 80.0545
lhand 13.9351 43.8246
lfingers 7.12502
lthumb 38.8484 69.3879
rfemur -56.156 -40.3538 16.6244
rtibia 68.1925
rfoot -4.62818 6.58123
rtoes 13.2132
lfemur -27.4308 29.5258 -3.0786
ltibia 81.5265
lfoot -35.9866 17.4612
ltoes -18.4187
887
root -2.39733 13.6684 14.4988 -4.83908 54.2414 -6.2714
lowerback 15.2217 -0.771698 -6.98517
upperback -2.25162 -2.05623 2.90769
thorax -10.7226 -0.431081 7.69143
lowerneck 5.68001 -14.7516 -14.9723
upperneck 2.0808 -20.8563 13.8527
head 2.73178 -10.5829 5.79819
rclavicle 1.39013e-013 -7.95139e-015
rhumerus -2.60311 -19.1973 -64.1714
rradius 82.8453
rwrist 21.3081
rhand -44.884 -31.2995
rfingers 7.12502
rthumb -17.672 -60.5164
lclavicle 1.39013e-013 -7.95139e-015
lhumerus -54.343 -40.4797 118.208
lradius 105.337
lwrist 80.0623
lhand 13.9907 43.8533
lfingers 7.12502
lthumb 38.9007 69.4017
rfemur -56.1849 -40.3441 16.6498
rtibia 68.2032
rfoot -4.64669 6.57242
rtoes 13.2795
lfemur -27.4348 29.5189 -3.07903
ltibia 81.5006
lfoot -35.9883 17.4736
ltoes -18.4279
888
root -2.39538 13.6694 14.5014 -4.7997 54.23 -6.26805
lowerback 15.1957 -0.763657 -7.00315
upperback -2.25151 -2.04642 2.91535
thorax -10.7084 -0.425802 7.70681
lowerneck 5.66894 -14.7439 -14.9656
upperneck 2.1115 -20.8455 13.8328
head 2.73824 -10.5769 5.79069
rclavicle -1.10661e-013 2.42517e-014
rhumerus -2.60085 -19.2206 -64.156
rradius 82.8178
rwrist 21.2981
rhand -44.8994 -31.3028
rfingers 7.12502
rthumb -17.6868 -60.5184
lclavicle -1.10661e-013 2.42517e-014
lhumerus -54.3506 -40.4171 118.221
lradius 105.336
lwrist 80.0627
lhand 14.0521 43.8728
lfingers 7.12502
lthumb 38.9587 69.4046
rfemur -56.2199 -40.3352 16.6734
rtibia 68.2142
rfoot -4.66412 6.56626
rtoes 13.3653
lfemur -27.4441 29.5081 -3.08972
ltibia 81.4729
lfoot -35.9906 17.4873
ltoes -18.4292
889
root -2.39354 13.6705 14.504 -4.74602 54.2188 -6.25367
lowerback 15.1664 -0.755082 -7.0307
upperback -2.25335 -2.03752 2.92345
thorax -10.6941 -0.420299 7.72836
lowerneck 5.65604 -14.7384 -14.9613
upperneck 2.13707 -20.8372 13.8165
head 2.74448 -10.5722 5.78427
rclavicle 3.05134e-014 1.78906e-014
rhumerus -2.5997 -19.2451 -64.1435
rradius 82.7962
rwrist 21.3076
rhand -44.9138 -31.3288
rfingers 7.12502
rthumb -17.7008 -60.5432
lclavicle 3.05134e-014 1.78906e-014
lhumerus -54.3528 -40.3521 118.225
lradius 105.34
lwrist 80.0542
lhand 14.1118 43.8891
lfingers 7.12502
lthumb 39.0149 69.4049
rfemur -56.2624 -40.3277 16.6949
rtibia 68.2253
rfoot -4.68029 6.56282
rtoes 13.4679
lfemur -27.459 29.4934 -3.11203
ltibia 81.4427
lfoot -35.9929 17.5021
ltoes -18.4261
890
root -2.3918 13.6717 14.5065 -4.67854 54.2083 -6.2284
lowerback 15.1352 -0.746423 -7.06695
upperback -2.25743 -2.03012 2.93137
thorax -10.6808 -0.414862 7.75513
lowerneck 5.64345 -14.7347 -14.9597
upperneck 2.15553 -20.8314 13.8056
head 2.74977 -10.5687 5.77976
rclavicle 1.1368e-015 2.14687e-014
rhumerus -2.60255 -19.2696 -64.1347
rradius 82.7842
rwrist 21.3334
rhand -44.9249 -31.3645
rfingers 7.12502
rthumb -17.7114 -60.5779
lclavicle 1.1368e-015 2.14687e-014
lhumerus -54.3513 -40.2861 118.221
lradius 105.346
lwrist 80.0378
lhand 14.1618 43.9073
lfingers 7.12502
lthumb 39.0621 69.4095
rfemur -56.3117 -40.3222 16.714
rtibia 68.2358
rfoot -4.69565 6.562
rtoes 13.5804
lfemur -27.4789 29.4756 -3.14534
ltibia 81.4096
lfoot -35.9943 17.5185
ltoes -18.4239
